<svg width="144" height="34" viewBox="0 0 144 34" fill="none" xmlns="http://www.w3.org/2000/svg">
<g clip-path="url(#clip0_152_1585)">
<path d="M30.0747 25.8159V0H34.3821V10.3264C35.7305 8.48252 38.0523 7.30253 40.5991 7.30253C45.6557 7.30253 49.5509 11.396 49.5509 16.7808C49.5509 22.1656 45.6557 26.2592 40.5991 26.2592C38.0523 26.2592 35.7305 25.1895 34.3821 23.3456V25.8159H30.0747ZM39.7008 11.1744C36.5918 11.1744 34.199 13.6457 34.199 16.7808C34.199 19.916 36.5998 22.3863 39.7008 22.3863C42.8018 22.3863 45.2025 19.915 45.2025 16.7808C45.2025 13.6467 42.8118 11.1744 39.7008 11.1744Z" fill="white"/>
<path d="M56.9643 7.74487H52.6199V25.816H56.9643V7.74487Z" fill="white"/>
<path d="M79.5115 7.74474V33.4888H75.2101V23.2343C73.8987 25.0782 71.577 26.2591 68.9921 26.2591C63.9355 26.2591 60.0403 22.1282 60.0403 16.7808C60.0403 11.4334 63.9355 7.30249 68.9921 7.30249C71.577 7.30249 73.8617 8.33473 75.2101 10.216V7.74474H79.5115ZM69.8864 22.3862C72.9944 22.3862 75.3882 19.915 75.3882 16.7808C75.3882 13.6466 72.9874 11.1744 69.8864 11.1744C66.7854 11.1744 64.3847 13.6457 64.3847 16.7808C64.3847 19.9159 66.7774 22.3862 69.8864 22.3862Z" fill="white"/>
<path d="M2.857 26.2591C1.26749 26.2473 -0.0119201 24.9679 8.37816e-05 23.4027C0.0120876 21.8376 1.3115 20.5779 2.90101 20.5897C4.49052 20.6015 5.76893 21.879 5.75792 23.4441C5.75192 25.0043 4.46251 26.2651 2.877 26.2591C2.87 26.2591 2.864 26.2591 2.857 26.2591Z" fill="#FF5C38"/>
<path d="M2.857 13.0499C1.26749 13.0381 -0.0119201 11.7586 8.37816e-05 10.1935C0.0120876 8.6284 1.3115 7.36863 2.90101 7.38045C4.49052 7.39227 5.76893 8.66977 5.75792 10.2349C5.75192 11.7951 4.46251 13.0558 2.877 13.0499C2.87 13.0499 2.864 13.0499 2.857 13.0499Z" fill="#FF5C38"/>
<path d="M108.872 7.74487H104.527V25.816H108.872V7.74487Z" fill="white"/>
<path d="M118.236 2.39746V7.74483H123.105V11.3587H118.236V19.4728C118.236 21.4644 119.136 22.3499 121.083 22.3499C121.757 22.3499 122.543 22.1647 123.105 21.7963V25.5944C122.394 25.9637 121.305 26.2592 119.804 26.2592C116.133 26.2592 113.923 24.0086 113.923 20.2509V11.3587H111.194V7.74483H113.927V2.39746H118.236Z" fill="white"/>
<path d="M126.024 33.4889V29.8357C126.63 30.0819 127.28 30.208 127.935 30.205C129.47 30.205 130.445 29.4673 131.306 27.4392L132.092 25.558L124.751 7.74487H129.358L134.377 20.7641L139.542 7.74487H144L135.497 27.9918C133.697 32.2705 131.677 34.0001 128.568 34.0001C127.693 34.009 126.825 33.8346 126.024 33.4889Z" fill="white"/>
<path d="M17.4115 26.2543C13.0692 26.2543 9.10889 23.3053 9.10889 18.6238V7.74976H13.4513V17.8131C13.4513 20.6144 14.9117 22.3105 17.4195 22.3105H17.7196C20.2274 22.3105 21.6879 20.6144 21.6879 17.8131V7.74976H26.0303V18.6238C26.0303 23.3053 22.067 26.2543 17.7276 26.2543H17.4115Z" fill="white"/>
<path d="M91.8644 26.2543C87.522 26.2543 83.5618 23.3053 83.5618 18.6238V7.74976H87.9052V17.8131C87.9052 20.6144 89.3646 22.3105 91.8724 22.3105H92.1725C94.6803 22.3105 96.1408 20.6144 96.1408 17.8131V7.74976H100.483V18.6238C100.483 23.3053 96.5199 26.2543 92.1805 26.2543H91.8644Z" fill="white"/>
</g>
<defs>
<clipPath id="clip0_152_1585">
<rect width="144" height="34" fill="white"/>
</clipPath>
</defs>
</svg>
